<?xml version="1.0" standalone="no"?><!DOCTYPE svg PUBLIC "-//W3C//DTD SVG 1.1//EN" "http://www.w3.org/Graphics/SVG/1.1/DTD/svg11.dtd"><svg t="1630985815744" class="icon" viewBox="0 0 1024 1024" version="1.1" xmlns="http://www.w3.org/2000/svg" p-id="4248" width="200" height="200" xmlns:xlink="http://www.w3.org/1999/xlink"><defs><style type="text/css"></style></defs><path d="M523.4 959.2c-7.3 0-14.3-3.2-19.1-8.8-13.2-15.5-323.4-380.8-323.4-556.4 0-182 148-330 330-330s330 148 330 330c0 175.1-285.7 540.2-297.8 555.6-4.7 5.9-11.7 9.4-19.3 9.6h-0.4z m-12.4-845c-154.3 0-279.8 125.5-279.8 279.8 0 121.4 194.5 382.5 291.3 499.9 63.9-84.7 268.2-366.1 268.2-499.9 0-154.3-125.5-279.8-279.7-279.8z" fill="#17626a" p-id="4249"></path><path d="M511 549.2c-79.6 0-144.3-64.7-144.3-144.3S431.4 260.6 511 260.6s144.3 64.7 144.3 144.3S590.5 549.2 511 549.2z m0-238.4c-51.9 0-94.1 42.2-94.1 94.1S459.1 499 511 499s94.1-42.2 94.1-94.1-42.3-94.1-94.1-94.1z" fill="#17626a" opacity=".5" p-id="4250"></path></svg>